<?xml version="1.0" encoding="utf-8" standalone="no"?>
<!DOCTYPE svg PUBLIC "-//W3C//DTD SVG 1.1//EN"
  "http://www.w3.org/Graphics/SVG/1.1/DTD/svg11.dtd">
<svg xmlns:xlink="http://www.w3.org/1999/xlink" width="749.117288pt" height="427.259129pt" viewBox="0 0 749.117288 427.259129" xmlns="http://www.w3.org/2000/svg" version="1.1">
 <metadata>
  <rdf:RDF xmlns:dc="http://purl.org/dc/elements/1.1/" xmlns:cc="http://creativecommons.org/ns#" xmlns:rdf="http://www.w3.org/1999/02/22-rdf-syntax-ns#">
   <cc:Work>
    <dc:type rdf:resource="http://purl.org/dc/dcmitype/StillImage"/>
    <dc:date>2022-12-12T01:52:15.588987</dc:date>
    <dc:format>image/svg+xml</dc:format>
    <dc:creator>
     <cc:Agent>
      <dc:title>Matplotlib v3.6.2, https://matplotlib.org/</dc:title>
     </cc:Agent>
    </dc:creator>
   </cc:Work>
  </rdf:RDF>
 </metadata>
 <defs>
  <style type="text/css">*{stroke-linejoin: round; stroke-linecap: butt}</style>
 </defs>
 <g id="figure_1">
  <g id="patch_1">
   <path d="M 0 427.259129 
L 749.117288 427.259129 
L 749.117288 0 
L 0 0 
z
" style="fill: #ffffff"/>
  </g>
  <g id="axes_1">
   <g id="patch_2">
    <path d="M 66.053125 354.958125 
L 735.653125 354.958125 
L 735.653125 22.318125 
L 66.053125 22.318125 
z
" style="fill: #ffffff"/>
   </g>
   <g id="patch_3">
    <path d="M 74.024554 354.958125 
L 89.967411 354.958125 
L 89.967411 38.158125 
L 74.024554 38.158125 
z
" clip-path="url(#p0a5af5c3f2)" style="fill: #1f77b4"/>
   </g>
   <g id="patch_4">
    <path d="M 105.910268 354.958125 
L 121.853125 354.958125 
L 121.853125 176.548802 
L 105.910268 176.548802 
z
" clip-path="url(#p0a5af5c3f2)" style="fill: #1f77b4"/>
   </g>
   <g id="patch_5">
    <path d="M 137.795982 354.958125 
L 153.738839 354.958125 
L 153.738839 244.062788 
L 137.795982 244.062788 
z
" clip-path="url(#p0a5af5c3f2)" style="fill: #1f77b4"/>
   </g>
   <g id="patch_6">
    <path d="M 169.681696 354.958125 
L 185.624554 354.958125 
L 185.624554 244.694554 
L 169.681696 244.694554 
z
" clip-path="url(#p0a5af5c3f2)" style="fill: #1f77b4"/>
   </g>
   <g id="patch_7">
    <path d="M 201.567411 354.958125 
L 217.510268 354.958125 
L 217.510268 257.168445 
L 201.567411 257.168445 
z
" clip-path="url(#p0a5af5c3f2)" style="fill: #1f77b4"/>
   </g>
   <g id="patch_8">
    <path d="M 233.453125 354.958125 
L 249.395982 354.958125 
L 249.395982 289.151663 
L 233.453125 289.151663 
z
" clip-path="url(#p0a5af5c3f2)" style="fill: #1f77b4"/>
   </g>
   <g id="patch_9">
    <path d="M 265.338839 354.958125 
L 281.281696 354.958125 
L 281.281696 298.3668 
L 265.338839 298.3668 
z
" clip-path="url(#p0a5af5c3f2)" style="fill: #1f77b4"/>
   </g>
   <g id="patch_10">
    <path d="M 297.224554 354.958125 
L 313.167411 354.958125 
L 313.167411 319.950046 
L 297.224554 319.950046 
z
" clip-path="url(#p0a5af5c3f2)" style="fill: #1f77b4"/>
   </g>
   <g id="patch_11">
    <path d="M 329.110268 354.958125 
L 345.053125 354.958125 
L 345.053125 320.84096 
L 329.110268 320.84096 
z
" clip-path="url(#p0a5af5c3f2)" style="fill: #1f77b4"/>
   </g>
   <g id="patch_12">
    <path d="M 360.995982 354.958125 
L 376.938839 354.958125 
L 376.938839 326.247569 
L 360.995982 326.247569 
z
" clip-path="url(#p0a5af5c3f2)" style="fill: #1f77b4"/>
   </g>
   <g id="patch_13">
    <path d="M 392.881696 354.958125 
L 408.824554 354.958125 
L 408.824554 334.714544 
L 392.881696 334.714544 
z
" clip-path="url(#p0a5af5c3f2)" style="fill: #1f77b4"/>
   </g>
   <g id="patch_14">
    <path d="M 424.767411 354.958125 
L 440.710268 354.958125 
L 440.710268 335.071056 
L 424.767411 335.071056 
z
" clip-path="url(#p0a5af5c3f2)" style="fill: #1f77b4"/>
   </g>
   <g id="patch_15">
    <path d="M 456.653125 354.958125 
L 472.595982 354.958125 
L 472.595982 337.827618 
L 456.653125 337.827618 
z
" clip-path="url(#p0a5af5c3f2)" style="fill: #1f77b4"/>
   </g>
   <g id="patch_16">
    <path d="M 488.538839 354.958125 
L 504.481696 354.958125 
L 504.481696 339.146419 
L 488.538839 339.146419 
z
" clip-path="url(#p0a5af5c3f2)" style="fill: #1f77b4"/>
   </g>
   <g id="patch_17">
    <path d="M 520.424554 354.958125 
L 536.367411 354.958125 
L 536.367411 347.391581 
L 520.424554 347.391581 
z
" clip-path="url(#p0a5af5c3f2)" style="fill: #1f77b4"/>
   </g>
   <g id="patch_18">
    <path d="M 552.310268 354.958125 
L 568.253125 354.958125 
L 568.253125 354.958125 
L 552.310268 354.958125 
z
" clip-path="url(#p0a5af5c3f2)" style="fill: #1f77b4"/>
   </g>
   <g id="patch_19">
    <path d="M 584.195982 354.958125 
L 600.138839 354.958125 
L 600.138839 354.958125 
L 584.195982 354.958125 
z
" clip-path="url(#p0a5af5c3f2)" style="fill: #1f77b4"/>
   </g>
   <g id="patch_20">
    <path d="M 616.081696 354.958125 
L 632.024554 354.958125 
L 632.024554 350.50685 
L 616.081696 350.50685 
z
" clip-path="url(#p0a5af5c3f2)" style="fill: #1f77b4"/>
   </g>
   <g id="patch_21">
    <path d="M 647.967411 354.958125 
L 663.910268 354.958125 
L 663.910268 354.958125 
L 647.967411 354.958125 
z
" clip-path="url(#p0a5af5c3f2)" style="fill: #1f77b4"/>
   </g>
   <g id="patch_22">
    <path d="M 679.853125 354.958125 
L 695.795982 354.958125 
L 695.795982 352.301489 
L 679.853125 352.301489 
z
" clip-path="url(#p0a5af5c3f2)" style="fill: #1f77b4"/>
   </g>
   <g id="patch_23">
    <path d="M 711.738839 354.958125 
L 727.681696 354.958125 
L 727.681696 354.958125 
L 711.738839 354.958125 
z
" clip-path="url(#p0a5af5c3f2)" style="fill: #1f77b4"/>
   </g>
   <g id="patch_24">
    <path d="M 74.024554 354.958125 
L 89.967411 354.958125 
L 89.967411 354.958125 
L 74.024554 354.958125 
z
" clip-path="url(#p0a5af5c3f2)" style="fill: #ff7f0e"/>
   </g>
   <g id="patch_25">
    <path d="M 105.910268 354.958125 
L 121.853125 354.958125 
L 121.853125 354.958125 
L 105.910268 354.958125 
z
" clip-path="url(#p0a5af5c3f2)" style="fill: #ff7f0e"/>
   </g>
   <g id="patch_26">
    <path d="M 137.795982 354.958125 
L 153.738839 354.958125 
L 153.738839 354.958125 
L 137.795982 354.958125 
z
" clip-path="url(#p0a5af5c3f2)" style="fill: #ff7f0e"/>
   </g>
   <g id="patch_27">
    <path d="M 169.681696 354.958125 
L 185.624554 354.958125 
L 185.624554 354.958125 
L 169.681696 354.958125 
z
" clip-path="url(#p0a5af5c3f2)" style="fill: #ff7f0e"/>
   </g>
   <g id="patch_28">
    <path d="M 201.567411 354.958125 
L 217.510268 354.958125 
L 217.510268 354.958125 
L 201.567411 354.958125 
z
" clip-path="url(#p0a5af5c3f2)" style="fill: #ff7f0e"/>
   </g>
   <g id="patch_29">
    <path d="M 233.453125 354.958125 
L 249.395982 354.958125 
L 249.395982 354.958125 
L 233.453125 354.958125 
z
" clip-path="url(#p0a5af5c3f2)" style="fill: #ff7f0e"/>
   </g>
   <g id="patch_30">
    <path d="M 265.338839 354.958125 
L 281.281696 354.958125 
L 281.281696 354.958125 
L 265.338839 354.958125 
z
" clip-path="url(#p0a5af5c3f2)" style="fill: #ff7f0e"/>
   </g>
   <g id="patch_31">
    <path d="M 297.224554 354.958125 
L 313.167411 354.958125 
L 313.167411 354.958125 
L 297.224554 354.958125 
z
" clip-path="url(#p0a5af5c3f2)" style="fill: #ff7f0e"/>
   </g>
   <g id="patch_32">
    <path d="M 329.110268 354.958125 
L 345.053125 354.958125 
L 345.053125 354.958125 
L 329.110268 354.958125 
z
" clip-path="url(#p0a5af5c3f2)" style="fill: #ff7f0e"/>
   </g>
   <g id="patch_33">
    <path d="M 360.995982 354.958125 
L 376.938839 354.958125 
L 376.938839 354.958125 
L 360.995982 354.958125 
z
" clip-path="url(#p0a5af5c3f2)" style="fill: #ff7f0e"/>
   </g>
   <g id="patch_34">
    <path d="M 392.881696 354.958125 
L 408.824554 354.958125 
L 408.824554 354.958125 
L 392.881696 354.958125 
z
" clip-path="url(#p0a5af5c3f2)" style="fill: #ff7f0e"/>
   </g>
   <g id="patch_35">
    <path d="M 424.767411 354.958125 
L 440.710268 354.958125 
L 440.710268 354.958125 
L 424.767411 354.958125 
z
" clip-path="url(#p0a5af5c3f2)" style="fill: #ff7f0e"/>
   </g>
   <g id="patch_36">
    <path d="M 456.653125 354.958125 
L 472.595982 354.958125 
L 472.595982 354.958125 
L 456.653125 354.958125 
z
" clip-path="url(#p0a5af5c3f2)" style="fill: #ff7f0e"/>
   </g>
   <g id="patch_37">
    <path d="M 488.538839 354.958125 
L 504.481696 354.958125 
L 504.481696 354.958125 
L 488.538839 354.958125 
z
" clip-path="url(#p0a5af5c3f2)" style="fill: #ff7f0e"/>
   </g>
   <g id="patch_38">
    <path d="M 520.424554 354.958125 
L 536.367411 354.958125 
L 536.367411 354.958125 
L 520.424554 354.958125 
z
" clip-path="url(#p0a5af5c3f2)" style="fill: #ff7f0e"/>
   </g>
   <g id="patch_39">
    <path d="M 552.310268 354.958125 
L 568.253125 354.958125 
L 568.253125 348.58703 
L 552.310268 348.58703 
z
" clip-path="url(#p0a5af5c3f2)" style="fill: #ff7f0e"/>
   </g>
   <g id="patch_40">
    <path d="M 584.195982 354.958125 
L 600.138839 354.958125 
L 600.138839 348.796399 
L 584.195982 348.796399 
z
" clip-path="url(#p0a5af5c3f2)" style="fill: #ff7f0e"/>
   </g>
   <g id="patch_41">
    <path d="M 616.081696 354.958125 
L 632.024554 354.958125 
L 632.024554 354.958125 
L 616.081696 354.958125 
z
" clip-path="url(#p0a5af5c3f2)" style="fill: #ff7f0e"/>
   </g>
   <g id="patch_42">
    <path d="M 647.967411 354.958125 
L 663.910268 354.958125 
L 663.910268 351.907642 
L 647.967411 351.907642 
z
" clip-path="url(#p0a5af5c3f2)" style="fill: #ff7f0e"/>
   </g>
   <g id="patch_43">
    <path d="M 679.853125 354.958125 
L 695.795982 354.958125 
L 695.795982 354.958125 
L 679.853125 354.958125 
z
" clip-path="url(#p0a5af5c3f2)" style="fill: #ff7f0e"/>
   </g>
   <g id="patch_44">
    <path d="M 711.738839 354.958125 
L 727.681696 354.958125 
L 727.681696 354.785359 
L 711.738839 354.785359 
z
" clip-path="url(#p0a5af5c3f2)" style="fill: #ff7f0e"/>
   </g>
   <g id="matplotlib.axis_1">
    <g id="xtick_1">
     <g id="line2d_1">
      <defs>
       <path id="mad7ef840b5" d="M 0 0 
L 0 3.5 
" style="stroke: #000000; stroke-width: 0.8"/>
      </defs>
      <g>
       <use xlink:href="#mad7ef840b5" x="81.995982" y="354.958125" style="stroke: #000000; stroke-width: 0.8"/>
      </g>
     </g>
     <g id="text_1">
      <!-- 3x3x3 -->
      <g transform="translate(73.013516 389.198309) rotate(-45) scale(0.1 -0.1)">
       <defs>
        <path id="DejaVuSans-33" d="M 2597 2516 
Q 3050 2419 3304 2112 
Q 3559 1806 3559 1356 
Q 3559 666 3084 287 
Q 2609 -91 1734 -91 
Q 1441 -91 1130 -33 
Q 819 25 488 141 
L 488 750 
Q 750 597 1062 519 
Q 1375 441 1716 441 
Q 2309 441 2620 675 
Q 2931 909 2931 1356 
Q 2931 1769 2642 2001 
Q 2353 2234 1838 2234 
L 1294 2234 
L 1294 2753 
L 1863 2753 
Q 2328 2753 2575 2939 
Q 2822 3125 2822 3475 
Q 2822 3834 2567 4026 
Q 2313 4219 1838 4219 
Q 1578 4219 1281 4162 
Q 984 4106 628 3988 
L 628 4550 
Q 988 4650 1302 4700 
Q 1616 4750 1894 4750 
Q 2613 4750 3031 4423 
Q 3450 4097 3450 3541 
Q 3450 3153 3228 2886 
Q 3006 2619 2597 2516 
z
" transform="scale(0.015625)"/>
        <path id="DejaVuSans-78" d="M 3513 3500 
L 2247 1797 
L 3578 0 
L 2900 0 
L 1881 1375 
L 863 0 
L 184 0 
L 1544 1831 
L 300 3500 
L 978 3500 
L 1906 2253 
L 2834 3500 
L 3513 3500 
z
" transform="scale(0.015625)"/>
       </defs>
       <use xlink:href="#DejaVuSans-33"/>
       <use xlink:href="#DejaVuSans-78" x="63.623047"/>
       <use xlink:href="#DejaVuSans-33" x="122.802734"/>
       <use xlink:href="#DejaVuSans-78" x="186.425781"/>
       <use xlink:href="#DejaVuSans-33" x="245.605469"/>
      </g>
     </g>
    </g>
    <g id="xtick_2">
     <g id="line2d_2">
      <g>
       <use xlink:href="#mad7ef840b5" x="113.881696" y="354.958125" style="stroke: #000000; stroke-width: 0.8"/>
      </g>
     </g>
     <g id="text_2">
      <!-- 2x2x2 -->
      <g transform="translate(104.899231 389.198309) rotate(-45) scale(0.1 -0.1)">
       <defs>
        <path id="DejaVuSans-32" d="M 1228 531 
L 3431 531 
L 3431 0 
L 469 0 
L 469 531 
Q 828 903 1448 1529 
Q 2069 2156 2228 2338 
Q 2531 2678 2651 2914 
Q 2772 3150 2772 3378 
Q 2772 3750 2511 3984 
Q 2250 4219 1831 4219 
Q 1534 4219 1204 4116 
Q 875 4013 500 3803 
L 500 4441 
Q 881 4594 1212 4672 
Q 1544 4750 1819 4750 
Q 2544 4750 2975 4387 
Q 3406 4025 3406 3419 
Q 3406 3131 3298 2873 
Q 3191 2616 2906 2266 
Q 2828 2175 2409 1742 
Q 1991 1309 1228 531 
z
" transform="scale(0.015625)"/>
       </defs>
       <use xlink:href="#DejaVuSans-32"/>
       <use xlink:href="#DejaVuSans-78" x="63.623047"/>
       <use xlink:href="#DejaVuSans-32" x="122.802734"/>
       <use xlink:href="#DejaVuSans-78" x="186.425781"/>
       <use xlink:href="#DejaVuSans-32" x="245.605469"/>
      </g>
     </g>
    </g>
    <g id="xtick_3">
     <g id="line2d_3">
      <g>
       <use xlink:href="#mad7ef840b5" x="145.767411" y="354.958125" style="stroke: #000000; stroke-width: 0.8"/>
      </g>
     </g>
     <g id="text_3">
      <!-- pyraminx -->
      <g transform="translate(131.002137 400.763924) rotate(-45) scale(0.1 -0.1)">
       <defs>
        <path id="DejaVuSans-70" d="M 1159 525 
L 1159 -1331 
L 581 -1331 
L 581 3500 
L 1159 3500 
L 1159 2969 
Q 1341 3281 1617 3432 
Q 1894 3584 2278 3584 
Q 2916 3584 3314 3078 
Q 3713 2572 3713 1747 
Q 3713 922 3314 415 
Q 2916 -91 2278 -91 
Q 1894 -91 1617 61 
Q 1341 213 1159 525 
z
M 3116 1747 
Q 3116 2381 2855 2742 
Q 2594 3103 2138 3103 
Q 1681 3103 1420 2742 
Q 1159 2381 1159 1747 
Q 1159 1113 1420 752 
Q 1681 391 2138 391 
Q 2594 391 2855 752 
Q 3116 1113 3116 1747 
z
" transform="scale(0.015625)"/>
        <path id="DejaVuSans-79" d="M 2059 -325 
Q 1816 -950 1584 -1140 
Q 1353 -1331 966 -1331 
L 506 -1331 
L 506 -850 
L 844 -850 
Q 1081 -850 1212 -737 
Q 1344 -625 1503 -206 
L 1606 56 
L 191 3500 
L 800 3500 
L 1894 763 
L 2988 3500 
L 3597 3500 
L 2059 -325 
z
" transform="scale(0.015625)"/>
        <path id="DejaVuSans-72" d="M 2631 2963 
Q 2534 3019 2420 3045 
Q 2306 3072 2169 3072 
Q 1681 3072 1420 2755 
Q 1159 2438 1159 1844 
L 1159 0 
L 581 0 
L 581 3500 
L 1159 3500 
L 1159 2956 
Q 1341 3275 1631 3429 
Q 1922 3584 2338 3584 
Q 2397 3584 2469 3576 
Q 2541 3569 2628 3553 
L 2631 2963 
z
" transform="scale(0.015625)"/>
        <path id="DejaVuSans-61" d="M 2194 1759 
Q 1497 1759 1228 1600 
Q 959 1441 959 1056 
Q 959 750 1161 570 
Q 1363 391 1709 391 
Q 2188 391 2477 730 
Q 2766 1069 2766 1631 
L 2766 1759 
L 2194 1759 
z
M 3341 1997 
L 3341 0 
L 2766 0 
L 2766 531 
Q 2569 213 2275 61 
Q 1981 -91 1556 -91 
Q 1019 -91 701 211 
Q 384 513 384 1019 
Q 384 1609 779 1909 
Q 1175 2209 1959 2209 
L 2766 2209 
L 2766 2266 
Q 2766 2663 2505 2880 
Q 2244 3097 1772 3097 
Q 1472 3097 1187 3025 
Q 903 2953 641 2809 
L 641 3341 
Q 956 3463 1253 3523 
Q 1550 3584 1831 3584 
Q 2591 3584 2966 3190 
Q 3341 2797 3341 1997 
z
" transform="scale(0.015625)"/>
        <path id="DejaVuSans-6d" d="M 3328 2828 
Q 3544 3216 3844 3400 
Q 4144 3584 4550 3584 
Q 5097 3584 5394 3201 
Q 5691 2819 5691 2113 
L 5691 0 
L 5113 0 
L 5113 2094 
Q 5113 2597 4934 2840 
Q 4756 3084 4391 3084 
Q 3944 3084 3684 2787 
Q 3425 2491 3425 1978 
L 3425 0 
L 2847 0 
L 2847 2094 
Q 2847 2600 2669 2842 
Q 2491 3084 2119 3084 
Q 1678 3084 1418 2786 
Q 1159 2488 1159 1978 
L 1159 0 
L 581 0 
L 581 3500 
L 1159 3500 
L 1159 2956 
Q 1356 3278 1631 3431 
Q 1906 3584 2284 3584 
Q 2666 3584 2933 3390 
Q 3200 3197 3328 2828 
z
" transform="scale(0.015625)"/>
        <path id="DejaVuSans-69" d="M 603 3500 
L 1178 3500 
L 1178 0 
L 603 0 
L 603 3500 
z
M 603 4863 
L 1178 4863 
L 1178 4134 
L 603 4134 
L 603 4863 
z
" transform="scale(0.015625)"/>
        <path id="DejaVuSans-6e" d="M 3513 2113 
L 3513 0 
L 2938 0 
L 2938 2094 
Q 2938 2591 2744 2837 
Q 2550 3084 2163 3084 
Q 1697 3084 1428 2787 
Q 1159 2491 1159 1978 
L 1159 0 
L 581 0 
L 581 3500 
L 1159 3500 
L 1159 2956 
Q 1366 3272 1645 3428 
Q 1925 3584 2291 3584 
Q 2894 3584 3203 3211 
Q 3513 2838 3513 2113 
z
" transform="scale(0.015625)"/>
       </defs>
       <use xlink:href="#DejaVuSans-70"/>
       <use xlink:href="#DejaVuSans-79" x="63.476562"/>
       <use xlink:href="#DejaVuSans-72" x="122.65625"/>
       <use xlink:href="#DejaVuSans-61" x="163.769531"/>
       <use xlink:href="#DejaVuSans-6d" x="225.048828"/>
       <use xlink:href="#DejaVuSans-69" x="322.460938"/>
       <use xlink:href="#DejaVuSans-6e" x="350.244141"/>
       <use xlink:href="#DejaVuSans-78" x="413.623047"/>
      </g>
     </g>
    </g>
    <g id="xtick_4">
     <g id="line2d_4">
      <g>
       <use xlink:href="#mad7ef840b5" x="177.653125" y="354.958125" style="stroke: #000000; stroke-width: 0.8"/>
      </g>
     </g>
     <g id="text_4">
      <!-- 4x4x4 -->
      <g transform="translate(168.670659 389.198309) rotate(-45) scale(0.1 -0.1)">
       <defs>
        <path id="DejaVuSans-34" d="M 2419 4116 
L 825 1625 
L 2419 1625 
L 2419 4116 
z
M 2253 4666 
L 3047 4666 
L 3047 1625 
L 3713 1625 
L 3713 1100 
L 3047 1100 
L 3047 0 
L 2419 0 
L 2419 1100 
L 313 1100 
L 313 1709 
L 2253 4666 
z
" transform="scale(0.015625)"/>
       </defs>
       <use xlink:href="#DejaVuSans-34"/>
       <use xlink:href="#DejaVuSans-78" x="63.623047"/>
       <use xlink:href="#DejaVuSans-34" x="122.802734"/>
       <use xlink:href="#DejaVuSans-78" x="186.425781"/>
       <use xlink:href="#DejaVuSans-34" x="245.605469"/>
      </g>
     </g>
    </g>
    <g id="xtick_5">
     <g id="line2d_5">
      <g>
       <use xlink:href="#mad7ef840b5" x="209.538839" y="354.958125" style="stroke: #000000; stroke-width: 0.8"/>
      </g>
     </g>
     <g id="text_5">
      <!-- 3x3x3oh -->
      <g transform="translate(196.152424 398.006208) rotate(-45) scale(0.1 -0.1)">
       <defs>
        <path id="DejaVuSans-6f" d="M 1959 3097 
Q 1497 3097 1228 2736 
Q 959 2375 959 1747 
Q 959 1119 1226 758 
Q 1494 397 1959 397 
Q 2419 397 2687 759 
Q 2956 1122 2956 1747 
Q 2956 2369 2687 2733 
Q 2419 3097 1959 3097 
z
M 1959 3584 
Q 2709 3584 3137 3096 
Q 3566 2609 3566 1747 
Q 3566 888 3137 398 
Q 2709 -91 1959 -91 
Q 1206 -91 779 398 
Q 353 888 353 1747 
Q 353 2609 779 3096 
Q 1206 3584 1959 3584 
z
" transform="scale(0.015625)"/>
        <path id="DejaVuSans-68" d="M 3513 2113 
L 3513 0 
L 2938 0 
L 2938 2094 
Q 2938 2591 2744 2837 
Q 2550 3084 2163 3084 
Q 1697 3084 1428 2787 
Q 1159 2491 1159 1978 
L 1159 0 
L 581 0 
L 581 4863 
L 1159 4863 
L 1159 2956 
Q 1366 3272 1645 3428 
Q 1925 3584 2291 3584 
Q 2894 3584 3203 3211 
Q 3513 2838 3513 2113 
z
" transform="scale(0.015625)"/>
       </defs>
       <use xlink:href="#DejaVuSans-33"/>
       <use xlink:href="#DejaVuSans-78" x="63.623047"/>
       <use xlink:href="#DejaVuSans-33" x="122.802734"/>
       <use xlink:href="#DejaVuSans-78" x="186.425781"/>
       <use xlink:href="#DejaVuSans-33" x="245.605469"/>
       <use xlink:href="#DejaVuSans-6f" x="309.228516"/>
       <use xlink:href="#DejaVuSans-68" x="370.410156"/>
      </g>
     </g>
    </g>
    <g id="xtick_6">
     <g id="line2d_6">
      <g>
       <use xlink:href="#mad7ef840b5" x="241.424554" y="354.958125" style="stroke: #000000; stroke-width: 0.8"/>
      </g>
     </g>
     <g id="text_6">
      <!-- skewb -->
      <g transform="translate(232.303429 389.475627) rotate(-45) scale(0.1 -0.1)">
       <defs>
        <path id="DejaVuSans-73" d="M 2834 3397 
L 2834 2853 
Q 2591 2978 2328 3040 
Q 2066 3103 1784 3103 
Q 1356 3103 1142 2972 
Q 928 2841 928 2578 
Q 928 2378 1081 2264 
Q 1234 2150 1697 2047 
L 1894 2003 
Q 2506 1872 2764 1633 
Q 3022 1394 3022 966 
Q 3022 478 2636 193 
Q 2250 -91 1575 -91 
Q 1294 -91 989 -36 
Q 684 19 347 128 
L 347 722 
Q 666 556 975 473 
Q 1284 391 1588 391 
Q 1994 391 2212 530 
Q 2431 669 2431 922 
Q 2431 1156 2273 1281 
Q 2116 1406 1581 1522 
L 1381 1569 
Q 847 1681 609 1914 
Q 372 2147 372 2553 
Q 372 3047 722 3315 
Q 1072 3584 1716 3584 
Q 2034 3584 2315 3537 
Q 2597 3491 2834 3397 
z
" transform="scale(0.015625)"/>
        <path id="DejaVuSans-6b" d="M 581 4863 
L 1159 4863 
L 1159 1991 
L 2875 3500 
L 3609 3500 
L 1753 1863 
L 3688 0 
L 2938 0 
L 1159 1709 
L 1159 0 
L 581 0 
L 581 4863 
z
" transform="scale(0.015625)"/>
        <path id="DejaVuSans-65" d="M 3597 1894 
L 3597 1613 
L 953 1613 
Q 991 1019 1311 708 
Q 1631 397 2203 397 
Q 2534 397 2845 478 
Q 3156 559 3463 722 
L 3463 178 
Q 3153 47 2828 -22 
Q 2503 -91 2169 -91 
Q 1331 -91 842 396 
Q 353 884 353 1716 
Q 353 2575 817 3079 
Q 1281 3584 2069 3584 
Q 2775 3584 3186 3129 
Q 3597 2675 3597 1894 
z
M 3022 2063 
Q 3016 2534 2758 2815 
Q 2500 3097 2075 3097 
Q 1594 3097 1305 2825 
Q 1016 2553 972 2059 
L 3022 2063 
z
" transform="scale(0.015625)"/>
        <path id="DejaVuSans-77" d="M 269 3500 
L 844 3500 
L 1563 769 
L 2278 3500 
L 2956 3500 
L 3675 769 
L 4391 3500 
L 4966 3500 
L 4050 0 
L 3372 0 
L 2619 2869 
L 1863 0 
L 1184 0 
L 269 3500 
z
" transform="scale(0.015625)"/>
        <path id="DejaVuSans-62" d="M 3116 1747 
Q 3116 2381 2855 2742 
Q 2594 3103 2138 3103 
Q 1681 3103 1420 2742 
Q 1159 2381 1159 1747 
Q 1159 1113 1420 752 
Q 1681 391 2138 391 
Q 2594 391 2855 752 
Q 3116 1113 3116 1747 
z
M 1159 2969 
Q 1341 3281 1617 3432 
Q 1894 3584 2278 3584 
Q 2916 3584 3314 3078 
Q 3713 2572 3713 1747 
Q 3713 922 3314 415 
Q 2916 -91 2278 -91 
Q 1894 -91 1617 61 
Q 1341 213 1159 525 
L 1159 0 
L 581 0 
L 581 4863 
L 1159 4863 
L 1159 2969 
z
" transform="scale(0.015625)"/>
       </defs>
       <use xlink:href="#DejaVuSans-73"/>
       <use xlink:href="#DejaVuSans-6b" x="52.099609"/>
       <use xlink:href="#DejaVuSans-65" x="106.384766"/>
       <use xlink:href="#DejaVuSans-77" x="167.908203"/>
       <use xlink:href="#DejaVuSans-62" x="249.695312"/>
      </g>
     </g>
    </g>
    <g id="xtick_7">
     <g id="line2d_7">
      <g>
       <use xlink:href="#mad7ef840b5" x="273.310268" y="354.958125" style="stroke: #000000; stroke-width: 0.8"/>
      </g>
     </g>
     <g id="text_7">
      <!-- 5x5x5 -->
      <g transform="translate(264.327802 389.198309) rotate(-45) scale(0.1 -0.1)">
       <defs>
        <path id="DejaVuSans-35" d="M 691 4666 
L 3169 4666 
L 3169 4134 
L 1269 4134 
L 1269 2991 
Q 1406 3038 1543 3061 
Q 1681 3084 1819 3084 
Q 2600 3084 3056 2656 
Q 3513 2228 3513 1497 
Q 3513 744 3044 326 
Q 2575 -91 1722 -91 
Q 1428 -91 1123 -41 
Q 819 9 494 109 
L 494 744 
Q 775 591 1075 516 
Q 1375 441 1709 441 
Q 2250 441 2565 725 
Q 2881 1009 2881 1497 
Q 2881 1984 2565 2268 
Q 2250 2553 1709 2553 
Q 1456 2553 1204 2497 
Q 953 2441 691 2322 
L 691 4666 
z
" transform="scale(0.015625)"/>
       </defs>
       <use xlink:href="#DejaVuSans-35"/>
       <use xlink:href="#DejaVuSans-78" x="63.623047"/>
       <use xlink:href="#DejaVuSans-35" x="122.802734"/>
       <use xlink:href="#DejaVuSans-78" x="186.425781"/>
       <use xlink:href="#DejaVuSans-35" x="245.605469"/>
      </g>
     </g>
    </g>
    <g id="xtick_8">
     <g id="line2d_8">
      <g>
       <use xlink:href="#mad7ef840b5" x="305.195982" y="354.958125" style="stroke: #000000; stroke-width: 0.8"/>
      </g>
     </g>
     <g id="text_8">
      <!-- 3x3x3bf -->
      <g transform="translate(292.724386 396.176569) rotate(-45) scale(0.1 -0.1)">
       <defs>
        <path id="DejaVuSans-66" d="M 2375 4863 
L 2375 4384 
L 1825 4384 
Q 1516 4384 1395 4259 
Q 1275 4134 1275 3809 
L 1275 3500 
L 2222 3500 
L 2222 3053 
L 1275 3053 
L 1275 0 
L 697 0 
L 697 3053 
L 147 3053 
L 147 3500 
L 697 3500 
L 697 3744 
Q 697 4328 969 4595 
Q 1241 4863 1831 4863 
L 2375 4863 
z
" transform="scale(0.015625)"/>
       </defs>
       <use xlink:href="#DejaVuSans-33"/>
       <use xlink:href="#DejaVuSans-78" x="63.623047"/>
       <use xlink:href="#DejaVuSans-33" x="122.802734"/>
       <use xlink:href="#DejaVuSans-78" x="186.425781"/>
       <use xlink:href="#DejaVuSans-33" x="245.605469"/>
       <use xlink:href="#DejaVuSans-62" x="309.228516"/>
       <use xlink:href="#DejaVuSans-66" x="372.705078"/>
      </g>
     </g>
    </g>
    <g id="xtick_9">
     <g id="line2d_9">
      <g>
       <use xlink:href="#mad7ef840b5" x="337.081696" y="354.958125" style="stroke: #000000; stroke-width: 0.8"/>
      </g>
     </g>
     <g id="text_9">
      <!-- megaminx -->
      <g transform="translate(320.243164 404.910443) rotate(-45) scale(0.1 -0.1)">
       <defs>
        <path id="DejaVuSans-67" d="M 2906 1791 
Q 2906 2416 2648 2759 
Q 2391 3103 1925 3103 
Q 1463 3103 1205 2759 
Q 947 2416 947 1791 
Q 947 1169 1205 825 
Q 1463 481 1925 481 
Q 2391 481 2648 825 
Q 2906 1169 2906 1791 
z
M 3481 434 
Q 3481 -459 3084 -895 
Q 2688 -1331 1869 -1331 
Q 1566 -1331 1297 -1286 
Q 1028 -1241 775 -1147 
L 775 -588 
Q 1028 -725 1275 -790 
Q 1522 -856 1778 -856 
Q 2344 -856 2625 -561 
Q 2906 -266 2906 331 
L 2906 616 
Q 2728 306 2450 153 
Q 2172 0 1784 0 
Q 1141 0 747 490 
Q 353 981 353 1791 
Q 353 2603 747 3093 
Q 1141 3584 1784 3584 
Q 2172 3584 2450 3431 
Q 2728 3278 2906 2969 
L 2906 3500 
L 3481 3500 
L 3481 434 
z
" transform="scale(0.015625)"/>
       </defs>
       <use xlink:href="#DejaVuSans-6d"/>
       <use xlink:href="#DejaVuSans-65" x="97.412109"/>
       <use xlink:href="#DejaVuSans-67" x="158.935547"/>
       <use xlink:href="#DejaVuSans-61" x="222.412109"/>
       <use xlink:href="#DejaVuSans-6d" x="283.691406"/>
       <use xlink:href="#DejaVuSans-69" x="381.103516"/>
       <use xlink:href="#DejaVuSans-6e" x="408.886719"/>
       <use xlink:href="#DejaVuSans-78" x="472.265625"/>
      </g>
     </g>
    </g>
    <g id="xtick_10">
     <g id="line2d_10">
      <g>
       <use xlink:href="#mad7ef840b5" x="368.967411" y="354.958125" style="stroke: #000000; stroke-width: 0.8"/>
      </g>
     </g>
     <g id="text_10">
      <!-- square-1 -->
      <g transform="translate(355.350633 398.466932) rotate(-45) scale(0.1 -0.1)">
       <defs>
        <path id="DejaVuSans-71" d="M 947 1747 
Q 947 1113 1208 752 
Q 1469 391 1925 391 
Q 2381 391 2643 752 
Q 2906 1113 2906 1747 
Q 2906 2381 2643 2742 
Q 2381 3103 1925 3103 
Q 1469 3103 1208 2742 
Q 947 2381 947 1747 
z
M 2906 525 
Q 2725 213 2448 61 
Q 2172 -91 1784 -91 
Q 1150 -91 751 415 
Q 353 922 353 1747 
Q 353 2572 751 3078 
Q 1150 3584 1784 3584 
Q 2172 3584 2448 3432 
Q 2725 3281 2906 2969 
L 2906 3500 
L 3481 3500 
L 3481 -1331 
L 2906 -1331 
L 2906 525 
z
" transform="scale(0.015625)"/>
        <path id="DejaVuSans-75" d="M 544 1381 
L 544 3500 
L 1119 3500 
L 1119 1403 
Q 1119 906 1312 657 
Q 1506 409 1894 409 
Q 2359 409 2629 706 
Q 2900 1003 2900 1516 
L 2900 3500 
L 3475 3500 
L 3475 0 
L 2900 0 
L 2900 538 
Q 2691 219 2414 64 
Q 2138 -91 1772 -91 
Q 1169 -91 856 284 
Q 544 659 544 1381 
z
M 1991 3584 
L 1991 3584 
z
" transform="scale(0.015625)"/>
        <path id="DejaVuSans-2d" d="M 313 2009 
L 1997 2009 
L 1997 1497 
L 313 1497 
L 313 2009 
z
" transform="scale(0.015625)"/>
        <path id="DejaVuSans-31" d="M 794 531 
L 1825 531 
L 1825 4091 
L 703 3866 
L 703 4441 
L 1819 4666 
L 2450 4666 
L 2450 531 
L 3481 531 
L 3481 0 
L 794 0 
L 794 531 
z
" transform="scale(0.015625)"/>
       </defs>
       <use xlink:href="#DejaVuSans-73"/>
       <use xlink:href="#DejaVuSans-71" x="52.099609"/>
       <use xlink:href="#DejaVuSans-75" x="115.576172"/>
       <use xlink:href="#DejaVuSans-61" x="178.955078"/>
       <use xlink:href="#DejaVuSans-72" x="240.234375"/>
       <use xlink:href="#DejaVuSans-65" x="279.097656"/>
       <use xlink:href="#DejaVuSans-2d" x="340.621094"/>
       <use xlink:href="#DejaVuSans-31" x="376.705078"/>
      </g>
     </g>
    </g>
    <g id="xtick_11">
     <g id="line2d_11">
      <g>
       <use xlink:href="#mad7ef840b5" x="400.853125" y="354.958125" style="stroke: #000000; stroke-width: 0.8"/>
      </g>
     </g>
     <g id="text_11">
      <!-- clock -->
      <g transform="translate(393.7235 385.492627) rotate(-45) scale(0.1 -0.1)">
       <defs>
        <path id="DejaVuSans-63" d="M 3122 3366 
L 3122 2828 
Q 2878 2963 2633 3030 
Q 2388 3097 2138 3097 
Q 1578 3097 1268 2742 
Q 959 2388 959 1747 
Q 959 1106 1268 751 
Q 1578 397 2138 397 
Q 2388 397 2633 464 
Q 2878 531 3122 666 
L 3122 134 
Q 2881 22 2623 -34 
Q 2366 -91 2075 -91 
Q 1284 -91 818 406 
Q 353 903 353 1747 
Q 353 2603 823 3093 
Q 1294 3584 2113 3584 
Q 2378 3584 2631 3529 
Q 2884 3475 3122 3366 
z
" transform="scale(0.015625)"/>
        <path id="DejaVuSans-6c" d="M 603 4863 
L 1178 4863 
L 1178 0 
L 603 0 
L 603 4863 
z
" transform="scale(0.015625)"/>
       </defs>
       <use xlink:href="#DejaVuSans-63"/>
       <use xlink:href="#DejaVuSans-6c" x="54.980469"/>
       <use xlink:href="#DejaVuSans-6f" x="82.763672"/>
       <use xlink:href="#DejaVuSans-63" x="143.945312"/>
       <use xlink:href="#DejaVuSans-6b" x="198.925781"/>
      </g>
     </g>
    </g>
    <g id="xtick_12">
     <g id="line2d_12">
      <g>
       <use xlink:href="#mad7ef840b5" x="432.738839" y="354.958125" style="stroke: #000000; stroke-width: 0.8"/>
      </g>
     </g>
     <g id="text_12">
      <!-- 6x6x6 -->
      <g transform="translate(423.756373 389.198309) rotate(-45) scale(0.1 -0.1)">
       <defs>
        <path id="DejaVuSans-36" d="M 2113 2584 
Q 1688 2584 1439 2293 
Q 1191 2003 1191 1497 
Q 1191 994 1439 701 
Q 1688 409 2113 409 
Q 2538 409 2786 701 
Q 3034 994 3034 1497 
Q 3034 2003 2786 2293 
Q 2538 2584 2113 2584 
z
M 3366 4563 
L 3366 3988 
Q 3128 4100 2886 4159 
Q 2644 4219 2406 4219 
Q 1781 4219 1451 3797 
Q 1122 3375 1075 2522 
Q 1259 2794 1537 2939 
Q 1816 3084 2150 3084 
Q 2853 3084 3261 2657 
Q 3669 2231 3669 1497 
Q 3669 778 3244 343 
Q 2819 -91 2113 -91 
Q 1303 -91 875 529 
Q 447 1150 447 2328 
Q 447 3434 972 4092 
Q 1497 4750 2381 4750 
Q 2619 4750 2861 4703 
Q 3103 4656 3366 4563 
z
" transform="scale(0.015625)"/>
       </defs>
       <use xlink:href="#DejaVuSans-36"/>
       <use xlink:href="#DejaVuSans-78" x="63.623047"/>
       <use xlink:href="#DejaVuSans-36" x="122.802734"/>
       <use xlink:href="#DejaVuSans-78" x="186.425781"/>
       <use xlink:href="#DejaVuSans-36" x="245.605469"/>
      </g>
     </g>
    </g>
    <g id="xtick_13">
     <g id="line2d_13">
      <g>
       <use xlink:href="#mad7ef840b5" x="464.624554" y="354.958125" style="stroke: #000000; stroke-width: 0.8"/>
      </g>
     </g>
     <g id="text_13">
      <!-- 7x7x7 -->
      <g transform="translate(455.642088 389.198309) rotate(-45) scale(0.1 -0.1)">
       <defs>
        <path id="DejaVuSans-37" d="M 525 4666 
L 3525 4666 
L 3525 4397 
L 1831 0 
L 1172 0 
L 2766 4134 
L 525 4134 
L 525 4666 
z
" transform="scale(0.015625)"/>
       </defs>
       <use xlink:href="#DejaVuSans-37"/>
       <use xlink:href="#DejaVuSans-78" x="63.623047"/>
       <use xlink:href="#DejaVuSans-37" x="122.802734"/>
       <use xlink:href="#DejaVuSans-78" x="186.425781"/>
       <use xlink:href="#DejaVuSans-37" x="245.605469"/>
      </g>
     </g>
    </g>
    <g id="xtick_14">
     <g id="line2d_14">
      <g>
       <use xlink:href="#mad7ef840b5" x="496.510268" y="354.958125" style="stroke: #000000; stroke-width: 0.8"/>
      </g>
     </g>
     <g id="text_14">
      <!-- 3x3x3fm -->
      <g transform="translate(482.839353 398.575208) rotate(-45) scale(0.1 -0.1)">
       <use xlink:href="#DejaVuSans-33"/>
       <use xlink:href="#DejaVuSans-78" x="63.623047"/>
       <use xlink:href="#DejaVuSans-33" x="122.802734"/>
       <use xlink:href="#DejaVuSans-78" x="186.425781"/>
       <use xlink:href="#DejaVuSans-33" x="245.605469"/>
       <use xlink:href="#DejaVuSans-66" x="309.228516"/>
       <use xlink:href="#DejaVuSans-6d" x="344.433594"/>
      </g>
     </g>
    </g>
    <g id="xtick_15">
     <g id="line2d_15">
      <g>
       <use xlink:href="#mad7ef840b5" x="528.395982" y="354.958125" style="stroke: #000000; stroke-width: 0.8"/>
      </g>
     </g>
     <g id="text_15">
      <!-- 3x3x3mbf -->
      <g transform="translate(512.480555 403.064231) rotate(-45) scale(0.1 -0.1)">
       <use xlink:href="#DejaVuSans-33"/>
       <use xlink:href="#DejaVuSans-78" x="63.623047"/>
       <use xlink:href="#DejaVuSans-33" x="122.802734"/>
       <use xlink:href="#DejaVuSans-78" x="186.425781"/>
       <use xlink:href="#DejaVuSans-33" x="245.605469"/>
       <use xlink:href="#DejaVuSans-6d" x="309.228516"/>
       <use xlink:href="#DejaVuSans-62" x="406.640625"/>
       <use xlink:href="#DejaVuSans-66" x="470.117188"/>
      </g>
     </g>
    </g>
    <g id="xtick_16">
     <g id="line2d_16">
      <g>
       <use xlink:href="#mad7ef840b5" x="560.281696" y="354.958125" style="stroke: #000000; stroke-width: 0.8"/>
      </g>
     </g>
     <g id="text_16">
      <!-- magic -->
      <g transform="translate(551.4517 388.893369) rotate(-45) scale(0.1 -0.1)">
       <use xlink:href="#DejaVuSans-6d"/>
       <use xlink:href="#DejaVuSans-61" x="97.412109"/>
       <use xlink:href="#DejaVuSans-67" x="158.691406"/>
       <use xlink:href="#DejaVuSans-69" x="222.167969"/>
       <use xlink:href="#DejaVuSans-63" x="249.951172"/>
      </g>
     </g>
    </g>
    <g id="xtick_17">
     <g id="line2d_17">
      <g>
       <use xlink:href="#mad7ef840b5" x="592.167411" y="354.958125" style="stroke: #000000; stroke-width: 0.8"/>
      </g>
     </g>
     <g id="text_17">
      <!-- 3x3x3ft -->
      <g transform="translate(580.616159 394.335882) rotate(-45) scale(0.1 -0.1)">
       <defs>
        <path id="DejaVuSans-74" d="M 1172 4494 
L 1172 3500 
L 2356 3500 
L 2356 3053 
L 1172 3053 
L 1172 1153 
Q 1172 725 1289 603 
Q 1406 481 1766 481 
L 2356 481 
L 2356 0 
L 1766 0 
Q 1100 0 847 248 
Q 594 497 594 1153 
L 594 3053 
L 172 3053 
L 172 3500 
L 594 3500 
L 594 4494 
L 1172 4494 
z
" transform="scale(0.015625)"/>
       </defs>
       <use xlink:href="#DejaVuSans-33"/>
       <use xlink:href="#DejaVuSans-78" x="63.623047"/>
       <use xlink:href="#DejaVuSans-33" x="122.802734"/>
       <use xlink:href="#DejaVuSans-78" x="186.425781"/>
       <use xlink:href="#DejaVuSans-33" x="245.605469"/>
       <use xlink:href="#DejaVuSans-66" x="309.228516"/>
       <use xlink:href="#DejaVuSans-74" x="342.683594"/>
      </g>
     </g>
    </g>
    <g id="xtick_18">
     <g id="line2d_18">
      <g>
       <use xlink:href="#mad7ef840b5" x="624.053125" y="354.958125" style="stroke: #000000; stroke-width: 0.8"/>
      </g>
     </g>
     <g id="text_18">
      <!-- 4x4x4bf -->
      <g transform="translate(611.581529 396.176569) rotate(-45) scale(0.1 -0.1)">
       <use xlink:href="#DejaVuSans-34"/>
       <use xlink:href="#DejaVuSans-78" x="63.623047"/>
       <use xlink:href="#DejaVuSans-34" x="122.802734"/>
       <use xlink:href="#DejaVuSans-78" x="186.425781"/>
       <use xlink:href="#DejaVuSans-34" x="245.605469"/>
       <use xlink:href="#DejaVuSans-62" x="309.228516"/>
       <use xlink:href="#DejaVuSans-66" x="372.705078"/>
      </g>
     </g>
    </g>
    <g id="xtick_19">
     <g id="line2d_19">
      <g>
       <use xlink:href="#mad7ef840b5" x="655.938839" y="354.958125" style="stroke: #000000; stroke-width: 0.8"/>
      </g>
     </g>
     <g id="text_19">
      <!-- mmagic -->
      <g transform="translate(643.665012 395.781031) rotate(-45) scale(0.1 -0.1)">
       <use xlink:href="#DejaVuSans-6d"/>
       <use xlink:href="#DejaVuSans-6d" x="97.412109"/>
       <use xlink:href="#DejaVuSans-61" x="194.824219"/>
       <use xlink:href="#DejaVuSans-67" x="256.103516"/>
       <use xlink:href="#DejaVuSans-69" x="319.580078"/>
       <use xlink:href="#DejaVuSans-63" x="347.363281"/>
      </g>
     </g>
    </g>
    <g id="xtick_20">
     <g id="line2d_20">
      <g>
       <use xlink:href="#mad7ef840b5" x="687.824554" y="354.958125" style="stroke: #000000; stroke-width: 0.8"/>
      </g>
     </g>
     <g id="text_20">
      <!-- 5x5x5bf -->
      <g transform="translate(675.352958 396.176569) rotate(-45) scale(0.1 -0.1)">
       <use xlink:href="#DejaVuSans-35"/>
       <use xlink:href="#DejaVuSans-78" x="63.623047"/>
       <use xlink:href="#DejaVuSans-35" x="122.802734"/>
       <use xlink:href="#DejaVuSans-78" x="186.425781"/>
       <use xlink:href="#DejaVuSans-35" x="245.605469"/>
       <use xlink:href="#DejaVuSans-62" x="309.228516"/>
       <use xlink:href="#DejaVuSans-66" x="372.705078"/>
      </g>
     </g>
    </g>
    <g id="xtick_21">
     <g id="line2d_21">
      <g>
       <use xlink:href="#mad7ef840b5" x="719.710268" y="354.958125" style="stroke: #000000; stroke-width: 0.8"/>
      </g>
     </g>
     <g id="text_21">
      <!-- 3x3x3mbo -->
      <g transform="translate(702.876155 404.901604) rotate(-45) scale(0.1 -0.1)">
       <use xlink:href="#DejaVuSans-33"/>
       <use xlink:href="#DejaVuSans-78" x="63.623047"/>
       <use xlink:href="#DejaVuSans-33" x="122.802734"/>
       <use xlink:href="#DejaVuSans-78" x="186.425781"/>
       <use xlink:href="#DejaVuSans-33" x="245.605469"/>
       <use xlink:href="#DejaVuSans-6d" x="309.228516"/>
       <use xlink:href="#DejaVuSans-62" x="406.640625"/>
       <use xlink:href="#DejaVuSans-6f" x="470.117188"/>
      </g>
     </g>
    </g>
    <g id="text_22">
     <!-- Event -->
     <g transform="translate(386.528906 417.979441) scale(0.1 -0.1)">
      <defs>
       <path id="DejaVuSans-45" d="M 628 4666 
L 3578 4666 
L 3578 4134 
L 1259 4134 
L 1259 2753 
L 3481 2753 
L 3481 2222 
L 1259 2222 
L 1259 531 
L 3634 531 
L 3634 0 
L 628 0 
L 628 4666 
z
" transform="scale(0.015625)"/>
       <path id="DejaVuSans-76" d="M 191 3500 
L 800 3500 
L 1894 563 
L 2988 3500 
L 3597 3500 
L 2284 0 
L 1503 0 
L 191 3500 
z
" transform="scale(0.015625)"/>
      </defs>
      <use xlink:href="#DejaVuSans-45"/>
      <use xlink:href="#DejaVuSans-76" x="63.183594"/>
      <use xlink:href="#DejaVuSans-65" x="122.363281"/>
      <use xlink:href="#DejaVuSans-6e" x="183.886719"/>
      <use xlink:href="#DejaVuSans-74" x="247.265625"/>
     </g>
    </g>
   </g>
   <g id="matplotlib.axis_2">
    <g id="ytick_1">
     <g id="line2d_22">
      <defs>
       <path id="ma1c2f7d52f" d="M 0 0 
L -3.5 0 
" style="stroke: #000000; stroke-width: 0.8"/>
      </defs>
      <g>
       <use xlink:href="#ma1c2f7d52f" x="66.053125" y="354.958125" style="stroke: #000000; stroke-width: 0.8"/>
      </g>
     </g>
     <g id="text_23">
      <!-- 0 -->
      <g transform="translate(52.690625 358.757344) scale(0.1 -0.1)">
       <defs>
        <path id="DejaVuSans-30" d="M 2034 4250 
Q 1547 4250 1301 3770 
Q 1056 3291 1056 2328 
Q 1056 1369 1301 889 
Q 1547 409 2034 409 
Q 2525 409 2770 889 
Q 3016 1369 3016 2328 
Q 3016 3291 2770 3770 
Q 2525 4250 2034 4250 
z
M 2034 4750 
Q 2819 4750 3233 4129 
Q 3647 3509 3647 2328 
Q 3647 1150 3233 529 
Q 2819 -91 2034 -91 
Q 1250 -91 836 529 
Q 422 1150 422 2328 
Q 422 3509 836 4129 
Q 1250 4750 2034 4750 
z
" transform="scale(0.015625)"/>
       </defs>
       <use xlink:href="#DejaVuSans-30"/>
      </g>
     </g>
    </g>
    <g id="ytick_2">
     <g id="line2d_23">
      <g>
       <use xlink:href="#ma1c2f7d52f" x="66.053125" y="281.752393" style="stroke: #000000; stroke-width: 0.8"/>
      </g>
     </g>
     <g id="text_24">
      <!-- 200000 -->
      <g transform="translate(20.878125 285.551612) scale(0.1 -0.1)">
       <use xlink:href="#DejaVuSans-32"/>
       <use xlink:href="#DejaVuSans-30" x="63.623047"/>
       <use xlink:href="#DejaVuSans-30" x="127.246094"/>
       <use xlink:href="#DejaVuSans-30" x="190.869141"/>
       <use xlink:href="#DejaVuSans-30" x="254.492188"/>
       <use xlink:href="#DejaVuSans-30" x="318.115234"/>
      </g>
     </g>
    </g>
    <g id="ytick_3">
     <g id="line2d_24">
      <g>
       <use xlink:href="#ma1c2f7d52f" x="66.053125" y="208.546662" style="stroke: #000000; stroke-width: 0.8"/>
      </g>
     </g>
     <g id="text_25">
      <!-- 400000 -->
      <g transform="translate(20.878125 212.34588) scale(0.1 -0.1)">
       <use xlink:href="#DejaVuSans-34"/>
       <use xlink:href="#DejaVuSans-30" x="63.623047"/>
       <use xlink:href="#DejaVuSans-30" x="127.246094"/>
       <use xlink:href="#DejaVuSans-30" x="190.869141"/>
       <use xlink:href="#DejaVuSans-30" x="254.492188"/>
       <use xlink:href="#DejaVuSans-30" x="318.115234"/>
      </g>
     </g>
    </g>
    <g id="ytick_4">
     <g id="line2d_25">
      <g>
       <use xlink:href="#ma1c2f7d52f" x="66.053125" y="135.34093" style="stroke: #000000; stroke-width: 0.8"/>
      </g>
     </g>
     <g id="text_26">
      <!-- 600000 -->
      <g transform="translate(20.878125 139.140149) scale(0.1 -0.1)">
       <use xlink:href="#DejaVuSans-36"/>
       <use xlink:href="#DejaVuSans-30" x="63.623047"/>
       <use xlink:href="#DejaVuSans-30" x="127.246094"/>
       <use xlink:href="#DejaVuSans-30" x="190.869141"/>
       <use xlink:href="#DejaVuSans-30" x="254.492188"/>
       <use xlink:href="#DejaVuSans-30" x="318.115234"/>
      </g>
     </g>
    </g>
    <g id="ytick_5">
     <g id="line2d_26">
      <g>
       <use xlink:href="#ma1c2f7d52f" x="66.053125" y="62.135198" style="stroke: #000000; stroke-width: 0.8"/>
      </g>
     </g>
     <g id="text_27">
      <!-- 800000 -->
      <g transform="translate(20.878125 65.934417) scale(0.1 -0.1)">
       <defs>
        <path id="DejaVuSans-38" d="M 2034 2216 
Q 1584 2216 1326 1975 
Q 1069 1734 1069 1313 
Q 1069 891 1326 650 
Q 1584 409 2034 409 
Q 2484 409 2743 651 
Q 3003 894 3003 1313 
Q 3003 1734 2745 1975 
Q 2488 2216 2034 2216 
z
M 1403 2484 
Q 997 2584 770 2862 
Q 544 3141 544 3541 
Q 544 4100 942 4425 
Q 1341 4750 2034 4750 
Q 2731 4750 3128 4425 
Q 3525 4100 3525 3541 
Q 3525 3141 3298 2862 
Q 3072 2584 2669 2484 
Q 3125 2378 3379 2068 
Q 3634 1759 3634 1313 
Q 3634 634 3220 271 
Q 2806 -91 2034 -91 
Q 1263 -91 848 271 
Q 434 634 434 1313 
Q 434 1759 690 2068 
Q 947 2378 1403 2484 
z
M 1172 3481 
Q 1172 3119 1398 2916 
Q 1625 2713 2034 2713 
Q 2441 2713 2670 2916 
Q 2900 3119 2900 3481 
Q 2900 3844 2670 4047 
Q 2441 4250 2034 4250 
Q 1625 4250 1398 4047 
Q 1172 3844 1172 3481 
z
" transform="scale(0.015625)"/>
       </defs>
       <use xlink:href="#DejaVuSans-38"/>
       <use xlink:href="#DejaVuSans-30" x="63.623047"/>
       <use xlink:href="#DejaVuSans-30" x="127.246094"/>
       <use xlink:href="#DejaVuSans-30" x="190.869141"/>
       <use xlink:href="#DejaVuSans-30" x="254.492188"/>
       <use xlink:href="#DejaVuSans-30" x="318.115234"/>
      </g>
     </g>
    </g>
    <g id="text_28">
     <!-- Number of recorded rounds -->
     <g transform="translate(14.798438 257.650625) rotate(-90) scale(0.1 -0.1)">
      <defs>
       <path id="DejaVuSans-4e" d="M 628 4666 
L 1478 4666 
L 3547 763 
L 3547 4666 
L 4159 4666 
L 4159 0 
L 3309 0 
L 1241 3903 
L 1241 0 
L 628 0 
L 628 4666 
z
" transform="scale(0.015625)"/>
       <path id="DejaVuSans-20" transform="scale(0.015625)"/>
       <path id="DejaVuSans-64" d="M 2906 2969 
L 2906 4863 
L 3481 4863 
L 3481 0 
L 2906 0 
L 2906 525 
Q 2725 213 2448 61 
Q 2172 -91 1784 -91 
Q 1150 -91 751 415 
Q 353 922 353 1747 
Q 353 2572 751 3078 
Q 1150 3584 1784 3584 
Q 2172 3584 2448 3432 
Q 2725 3281 2906 2969 
z
M 947 1747 
Q 947 1113 1208 752 
Q 1469 391 1925 391 
Q 2381 391 2643 752 
Q 2906 1113 2906 1747 
Q 2906 2381 2643 2742 
Q 2381 3103 1925 3103 
Q 1469 3103 1208 2742 
Q 947 2381 947 1747 
z
" transform="scale(0.015625)"/>
      </defs>
      <use xlink:href="#DejaVuSans-4e"/>
      <use xlink:href="#DejaVuSans-75" x="74.804688"/>
      <use xlink:href="#DejaVuSans-6d" x="138.183594"/>
      <use xlink:href="#DejaVuSans-62" x="235.595703"/>
      <use xlink:href="#DejaVuSans-65" x="299.072266"/>
      <use xlink:href="#DejaVuSans-72" x="360.595703"/>
      <use xlink:href="#DejaVuSans-20" x="401.708984"/>
      <use xlink:href="#DejaVuSans-6f" x="433.496094"/>
      <use xlink:href="#DejaVuSans-66" x="494.677734"/>
      <use xlink:href="#DejaVuSans-20" x="529.882812"/>
      <use xlink:href="#DejaVuSans-72" x="561.669922"/>
      <use xlink:href="#DejaVuSans-65" x="600.533203"/>
      <use xlink:href="#DejaVuSans-63" x="662.056641"/>
      <use xlink:href="#DejaVuSans-6f" x="717.037109"/>
      <use xlink:href="#DejaVuSans-72" x="778.21875"/>
      <use xlink:href="#DejaVuSans-64" x="817.582031"/>
      <use xlink:href="#DejaVuSans-65" x="881.058594"/>
      <use xlink:href="#DejaVuSans-64" x="942.582031"/>
      <use xlink:href="#DejaVuSans-20" x="1006.058594"/>
      <use xlink:href="#DejaVuSans-72" x="1037.845703"/>
      <use xlink:href="#DejaVuSans-6f" x="1076.708984"/>
      <use xlink:href="#DejaVuSans-75" x="1137.890625"/>
      <use xlink:href="#DejaVuSans-6e" x="1201.269531"/>
      <use xlink:href="#DejaVuSans-64" x="1264.648438"/>
      <use xlink:href="#DejaVuSans-73" x="1328.125"/>
     </g>
    </g>
   </g>
   <g id="patch_45">
    <path d="M 66.053125 354.958125 
L 66.053125 22.318125 
" style="fill: none; stroke: #000000; stroke-width: 0.8; stroke-linejoin: miter; stroke-linecap: square"/>
   </g>
   <g id="patch_46">
    <path d="M 735.653125 354.958125 
L 735.653125 22.318125 
" style="fill: none; stroke: #000000; stroke-width: 0.8; stroke-linejoin: miter; stroke-linecap: square"/>
   </g>
   <g id="patch_47">
    <path d="M 66.053125 354.958125 
L 735.653125 354.958125 
" style="fill: none; stroke: #000000; stroke-width: 0.8; stroke-linejoin: miter; stroke-linecap: square"/>
   </g>
   <g id="patch_48">
    <path d="M 66.053125 22.318125 
L 735.653125 22.318125 
" style="fill: none; stroke: #000000; stroke-width: 0.8; stroke-linejoin: miter; stroke-linecap: square"/>
   </g>
   <g id="text_29">
    <!-- Event popularity (discontinued events in orange) -->
    <g transform="translate(253.673125 16.318125) scale(0.12 -0.12)">
     <defs>
      <path id="DejaVuSans-28" d="M 1984 4856 
Q 1566 4138 1362 3434 
Q 1159 2731 1159 2009 
Q 1159 1288 1364 580 
Q 1569 -128 1984 -844 
L 1484 -844 
Q 1016 -109 783 600 
Q 550 1309 550 2009 
Q 550 2706 781 3412 
Q 1013 4119 1484 4856 
L 1984 4856 
z
" transform="scale(0.015625)"/>
      <path id="DejaVuSans-29" d="M 513 4856 
L 1013 4856 
Q 1481 4119 1714 3412 
Q 1947 2706 1947 2009 
Q 1947 1309 1714 600 
Q 1481 -109 1013 -844 
L 513 -844 
Q 928 -128 1133 580 
Q 1338 1288 1338 2009 
Q 1338 2731 1133 3434 
Q 928 4138 513 4856 
z
" transform="scale(0.015625)"/>
     </defs>
     <use xlink:href="#DejaVuSans-45"/>
     <use xlink:href="#DejaVuSans-76" x="63.183594"/>
     <use xlink:href="#DejaVuSans-65" x="122.363281"/>
     <use xlink:href="#DejaVuSans-6e" x="183.886719"/>
     <use xlink:href="#DejaVuSans-74" x="247.265625"/>
     <use xlink:href="#DejaVuSans-20" x="286.474609"/>
     <use xlink:href="#DejaVuSans-70" x="318.261719"/>
     <use xlink:href="#DejaVuSans-6f" x="381.738281"/>
     <use xlink:href="#DejaVuSans-70" x="442.919922"/>
     <use xlink:href="#DejaVuSans-75" x="506.396484"/>
     <use xlink:href="#DejaVuSans-6c" x="569.775391"/>
     <use xlink:href="#DejaVuSans-61" x="597.558594"/>
     <use xlink:href="#DejaVuSans-72" x="658.837891"/>
     <use xlink:href="#DejaVuSans-69" x="699.951172"/>
     <use xlink:href="#DejaVuSans-74" x="727.734375"/>
     <use xlink:href="#DejaVuSans-79" x="766.943359"/>
     <use xlink:href="#DejaVuSans-20" x="826.123047"/>
     <use xlink:href="#DejaVuSans-28" x="857.910156"/>
     <use xlink:href="#DejaVuSans-64" x="896.923828"/>
     <use xlink:href="#DejaVuSans-69" x="960.400391"/>
     <use xlink:href="#DejaVuSans-73" x="988.183594"/>
     <use xlink:href="#DejaVuSans-63" x="1040.283203"/>
     <use xlink:href="#DejaVuSans-6f" x="1095.263672"/>
     <use xlink:href="#DejaVuSans-6e" x="1156.445312"/>
     <use xlink:href="#DejaVuSans-74" x="1219.824219"/>
     <use xlink:href="#DejaVuSans-69" x="1259.033203"/>
     <use xlink:href="#DejaVuSans-6e" x="1286.816406"/>
     <use xlink:href="#DejaVuSans-75" x="1350.195312"/>
     <use xlink:href="#DejaVuSans-65" x="1413.574219"/>
     <use xlink:href="#DejaVuSans-64" x="1475.097656"/>
     <use xlink:href="#DejaVuSans-20" x="1538.574219"/>
     <use xlink:href="#DejaVuSans-65" x="1570.361328"/>
     <use xlink:href="#DejaVuSans-76" x="1631.884766"/>
     <use xlink:href="#DejaVuSans-65" x="1691.064453"/>
     <use xlink:href="#DejaVuSans-6e" x="1752.587891"/>
     <use xlink:href="#DejaVuSans-74" x="1815.966797"/>
     <use xlink:href="#DejaVuSans-73" x="1855.175781"/>
     <use xlink:href="#DejaVuSans-20" x="1907.275391"/>
     <use xlink:href="#DejaVuSans-69" x="1939.0625"/>
     <use xlink:href="#DejaVuSans-6e" x="1966.845703"/>
     <use xlink:href="#DejaVuSans-20" x="2030.224609"/>
     <use xlink:href="#DejaVuSans-6f" x="2062.011719"/>
     <use xlink:href="#DejaVuSans-72" x="2123.193359"/>
     <use xlink:href="#DejaVuSans-61" x="2164.306641"/>
     <use xlink:href="#DejaVuSans-6e" x="2225.585938"/>
     <use xlink:href="#DejaVuSans-67" x="2288.964844"/>
     <use xlink:href="#DejaVuSans-65" x="2352.441406"/>
     <use xlink:href="#DejaVuSans-29" x="2413.964844"/>
    </g>
   </g>
  </g>
 </g>
 <defs>
  <clipPath id="p0a5af5c3f2">
   <rect x="66.053125" y="22.318125" width="669.6" height="332.64"/>
  </clipPath>
 </defs>
</svg>
